# xmcd
# Copyright (c) 1998 CDDB Inc.
#
# Track frame offsets:
#	150
#	10502
#	20704
#	41856
#	59858
#	73360
#	86712
#	90314
#	106816
#	132768
#
# Disc length: 1842 seconds
#
# Revision: 1
# Processed by: cddbd v1.5.1PL2 Copyright (c) Steve Scherf et al.
# Submitted via: AudioCatalyst 2.10full
#
DISCID=8607300a
DTITLE=Les Alcolytes - Barouf
DYEAR=1900
DGENRE=
TTITLE0=Zirba
TTITLE1=Danse de l'Arabe
TTITLE2=Balkanski Cocek
TTITLE3=Gankino Oro
TTITLE4=Nizam Farewell
TTITLE5=Bugarsko oro
TTITLE6=Interlude
TTITLE7=Des p'tits coups
TTITLE8=Rumba
TTITLE9=Arlanc Terminus
EXTD=www.lesalcolytes.com
EXTT0=
EXTT1=
EXTT2=(piste noire des Balkans)
EXTT3=
EXTT4=
EXTT5=
EXTT6=
EXTT7=
EXTT8=
EXTT9=
PLAYORDER=
